<?xml version="1.0" encoding="UTF-8" standalone="no"?>
<!-- Created with Inkscape (http://www.inkscape.org/) -->

<svg
   width="3cm"
   height="4cm"
   viewBox="0 0 30 40"
   version="1.1"
   id="svg1"
   inkscape:version="1.4 (86a8ad7, 2024-10-11)"
   sodipodi:docname="plas.svg"
   xmlns:inkscape="http://www.inkscape.org/namespaces/inkscape"
   xmlns:sodipodi="http://sodipodi.sourceforge.net/DTD/sodipodi-0.dtd"
   xmlns="http://www.w3.org/2000/svg"
   xmlns:svg="http://www.w3.org/2000/svg">
  <sodipodi:namedview
     id="namedview1"
     pagecolor="#ffffff"
     bordercolor="#000000"
     borderopacity="0.25"
     inkscape:showpageshadow="2"
     inkscape:pageopacity="0.0"
     inkscape:pagecheckerboard="0"
     inkscape:deskcolor="#d1d1d1"
     inkscape:document-units="mm"
     inkscape:zoom="2.7901515"
     inkscape:cx="113.7931"
     inkscape:cy="141.56937"
     inkscape:window-width="1245"
     inkscape:window-height="1030"
     inkscape:window-x="637"
     inkscape:window-y="49"
     inkscape:window-maximized="0"
     inkscape:current-layer="layer1" />
  <defs
     id="defs1">
    <clipPath
       clipPathUnits="userSpaceOnUse"
       id="clipPath1099-5">
      <path
         d="M 0,167.244 H 252.283 V 0 H 0 Z"
         transform="translate(-211.51631,-61.309299)"
         id="path1099-4" />
    </clipPath>
    <clipPath
       clipPathUnits="userSpaceOnUse"
       id="clipPath1101-3">
      <path
         d="M 0,167.244 H 252.283 V 0 H 0 Z"
         transform="translate(-235.86471,-91.583102)"
         id="path1101-1" />
    </clipPath>
  </defs>
  <g
     inkscape:label="Capa 1"
     inkscape:groupmode="layer"
     id="layer1"
     style="display:inline;opacity:1;fill:#ffffff">
    <g
       id="g1"
       style="fill:#c64288;fill-opacity:1"
       transform="translate(0,-1.5172414)">
      <path
         id="path1098-1"
         d="M 0,0 C 0.068,0.022 0.233,0.018 0.313,0.019 0.524,0.019 0.74,0.023 0.95,0.005 1.067,-0.006 1.273,-0.005 1.368,-0.088 1.358,-0.109 1.311,-0.129 1.291,-0.136 1.213,-0.164 1.124,-0.174 1.043,-0.185 0.778,-0.222 0.513,-0.261 0.245,-0.263 0.123,-0.264 0.182,-0.26 0.068,-0.25 c -0.036,0.003 -0.074,-0.009 -0.107,0.005 -0.068,0.03 -0.045,0.133 -0.045,0.178 C -0.056,-0.045 -0.034,-0.011 0,0 Z m -9.792,1.408 c 0.065,-0.495 0.4,-0.904 0.826,-1.143 0.182,-0.102 0.384,-0.164 0.584,-0.219 0.648,-0.178 1.313,-0.247 1.984,-0.256 0.221,-0.003 0.439,-0.029 0.66,-0.012 0.353,0.027 0.687,0.107 1.031,0.18 0.24,0.05 0.486,0.065 0.725,0.117 0.155,-0.18 0.254,-0.385 0.371,-0.589 0.073,-0.128 0.14,-0.266 0.253,-0.365 0.199,-0.176 0.482,-0.135 0.719,-0.211 0.086,-0.027 0.103,-0.047 0.174,-0.096 0.168,-0.173 0.25,-0.405 0.343,-0.624 0.303,-0.079 0.611,-0.06 0.922,-0.071 0.554,-0.021 1.111,-0.011 1.665,-0.041 0.349,-0.019 0.693,-0.086 1.032,-0.167 0.176,-0.042 0.358,-0.094 0.54,-0.104 0.083,-0.005 0.166,0.006 0.249,0.009 0.215,0.298 -0.093,0.639 -0.366,0.77 -0.042,0.021 -0.156,0.053 -0.196,0.062 -0.191,0.045 -0.395,0.042 -0.59,0.046 -0.488,0.01 -0.975,-0.043 -1.462,-0.04 -0.215,0.002 -0.432,-0.009 -0.641,0.046 -0.099,0.122 -0.121,0.199 -0.128,0.355 0.03,0.018 0.056,0.046 0.089,0.056 0.087,0.025 0.181,0.016 0.27,0.035 0.12,0.027 0.232,0.049 0.355,0.055 0.237,0.013 0.474,-0.032 0.709,-0.05 0.411,-0.033 0.815,-0.035 1.221,-0.116 0.156,-0.031 0.306,-0.078 0.455,-0.133 0.167,-0.062 0.35,-0.15 0.518,-0.053 0.073,0.125 0.134,0.238 0.186,0.375 0.116,-0.017 0.212,-0.054 0.324,-0.085 0.151,-0.042 0.308,-0.072 0.462,-0.103 0.224,-0.046 0.454,-0.07 0.68,-0.108 0.657,-0.111 1.347,-0.195 2.001,-0.023 0.362,0.095 0.706,0.261 0.999,0.492 0.089,0.069 0.182,0.148 0.261,0.228 0.029,0.03 0.045,0.073 0.08,0.094 0.026,0.017 0.061,0.009 0.092,0.013 0.278,-0.297 0.383,-0.719 0.59,-1.064 0.087,-0.145 0.171,-0.267 0.315,-0.359 0.195,-0.021 0.385,0.002 0.58,0.009 0.595,0.021 1.182,0.085 1.774,0.136 0.468,0.041 0.938,0.043 1.407,0.068 0.178,0.009 0.354,0.036 0.532,0.044 0.519,0.023 1.047,0.006 1.566,-0.026 0.702,-0.043 1.406,-0.165 2.103,-0.261 0.324,-0.045 0.694,-0.146 1.01,-0.025 0.107,0.131 0.107,0.285 0.123,0.448 -0.177,0.133 -0.376,0.22 -0.584,0.291 -0.22,0.076 -0.42,0.118 -0.611,0.258 -0.129,0.147 -0.206,0.334 -0.353,0.464 -0.509,0.084 -1.024,0.07 -1.533,0.146 -0.667,0.1 -1.326,0.282 -2.003,0.306 C 11.964,0.186 11.405,0.179 10.848,0.206 10.493,0.224 10.12,0.234 9.781,0.349 9.672,0.624 9.688,0.945 9.682,1.237 9.675,1.544 9.642,1.848 9.601,2.152 9.537,2.629 9.421,3.098 9.365,3.576 9.298,4.149 9.301,4.725 9.311,5.302 c 0.01,0.55 0.027,1.127 0.245,1.64 0.08,0.19 0.181,0.38 0.306,0.544 0.188,0.249 0.426,0.457 0.635,0.688 0.178,0.196 0.331,0.413 0.508,0.61 0.105,0.117 0.211,0.232 0.318,0.346 0.119,0.128 0.263,0.259 0.328,0.426 0.059,0.152 0.055,0.333 0.05,0.492 -0.004,0.171 -0.011,0.341 -0.024,0.511 -0.024,0.31 -0.121,0.596 -0.316,0.84 -0.185,0.009 -0.387,-0.077 -0.552,-0.155 C 10.58,11.136 10.346,11.026 10.128,10.896 9.908,10.763 9.686,10.592 9.442,10.505 9.088,10.379 8.702,10.475 8.341,10.5 8.17,10.512 7.995,10.492 7.826,10.462 7.47,10.4 7.202,10.172 6.907,9.982 6.605,9.787 6.293,9.616 6.01,9.395 6.007,9.338 5.997,9.282 6.001,9.225 6.011,9.086 6.081,8.942 6.124,8.811 6.211,8.543 6.308,8.258 6.293,7.972 6.272,7.584 6.101,7.232 5.906,6.903 5.818,6.754 5.656,6.599 5.621,6.426 5.585,6.246 5.641,6.06 5.686,5.886 5.723,5.744 5.721,5.834 5.713,5.72 5.58,5.623 5.406,5.581 5.255,5.518 5.067,5.439 4.88,5.366 4.687,5.297 4.504,5.231 4.321,5.167 4.14,5.094 3.813,4.961 3.487,4.82 3.133,4.782 2.614,4.727 2.09,4.845 1.572,4.865 0.768,4.896 -0.059,4.822 -0.837,4.609 -1.342,4.47 -1.809,4.235 -2.263,3.978 -2.824,3.66 -3.388,3.25 -3.74,2.697 -3.909,2.43 -3.947,2.127 -3.994,1.822 -4.02,1.649 -4.032,1.445 -4.118,1.29 -4.205,1.135 -4.362,1.012 -4.516,0.931 -4.854,0.755 -5.261,0.758 -5.632,0.732 -6.101,0.699 -6.57,0.669 -7.04,0.664 -7.34,0.662 -7.645,0.666 -7.939,0.732 -8.315,0.816 -8.732,1.012 -8.943,1.35 -9.126,1.644 -9.025,1.977 -8.95,2.286 -8.915,2.427 -8.892,2.575 -8.879,2.719 -8.92,2.746 -8.955,2.783 -9,2.799 -9.037,2.812 -9.078,2.801 -9.117,2.804 -9.208,2.81 -9.258,2.838 -9.337,2.773 -9.375,2.742 -9.472,2.59 -9.5,2.547 -9.624,2.349 -9.721,2.149 -9.777,1.922 -9.803,1.751 -9.815,1.581 -9.792,1.409 Z"
         style="fill:#c64288;fill-opacity:1;fill-rule:evenodd;stroke:none"
         transform="matrix(-0.77321997,0,0,-0.71458392,22.048649,31.566606)"
         clip-path="url(#clipPath1099-5)" />
      <path
         id="path1100-3"
         d="M 0,0 C 0.131,0.282 0.276,0.559 0.391,0.849 0.519,1.168 0.622,1.491 0.714,1.822 0.837,1.761 0.971,1.685 1.043,1.56 1.123,1.421 1.041,1.24 1,1.104 0.893,0.738 0.746,0.387 0.507,0.083 0.368,-0.095 0.201,-0.28 0.022,-0.419 c -0.034,-0.027 -0.071,-0.05 -0.11,-0.069 -0.022,-0.011 -0.05,-0.03 -0.073,-0.018 -0.016,0.009 0.004,0.036 0.006,0.054 0.01,0.046 0.02,0.091 0.03,0.136 C -0.079,-0.212 -0.048,-0.103 0,0 Z m -10.771,-14.156 c 0.002,-0.043 -0.011,-0.096 0.017,-0.128 0.014,-0.016 0.184,-0.035 0.211,-0.035 0.236,-0.003 0.475,0.029 0.71,0.049 0.634,0.055 1.27,0.097 1.907,0.107 0.302,0.005 0.647,-0.06 0.938,0.037 0.151,0.099 0.284,0.204 0.392,0.352 0.166,0.227 0.277,0.504 0.404,0.755 0.229,0.448 0.475,0.89 0.718,1.33 0.023,0.031 0.034,0.103 0.07,0.091 0.041,-0.013 0.024,-0.082 0.032,-0.123 0.025,-0.136 0.011,-0.288 0.013,-0.425 0.009,-0.553 0,-1.106 0.002,-1.659 0.001,-0.521 0.004,-1.045 0.047,-1.565 0.008,-0.087 0.027,-0.17 0.034,-0.256 0.039,-0.466 0.056,-0.934 0.084,-1.4 0.023,-0.396 0.058,-0.789 0.081,-1.185 0.042,-0.742 0.149,-1.475 0.21,-2.215 0.048,-0.576 0.063,-1.15 0.186,-1.718 0.121,-0.555 0.301,-1.094 0.451,-1.641 0.29,-1.059 0.552,-2.132 0.567,-3.234 0.008,-0.683 -0.032,-1.365 -0.021,-2.047 0.003,-0.179 0.006,-0.357 -0.004,-0.536 -0.005,-0.091 -0.002,-0.161 -0.058,-0.235 -0.087,-0.059 -0.168,-0.085 -0.266,-0.121 -0.114,-0.042 -0.225,-0.093 -0.342,-0.125 -0.206,-0.057 -0.423,-0.083 -0.634,-0.114 -0.181,-0.026 -0.357,-0.05 -0.532,-0.106 -0.098,-0.031 -0.174,-0.049 -0.255,-0.123 -0.036,-0.032 -0.057,-0.079 -0.085,-0.118 0.002,-0.06 -10e-4,-0.229 0.024,-0.297 0.06,-0.16 0.213,-0.243 0.352,-0.324 0.211,-0.123 0.499,-0.171 0.742,-0.135 0.084,0.012 0.166,0.036 0.25,0.053 0.125,0.024 0.252,0.041 0.376,0.066 0.123,0.026 0.237,0.075 0.358,0.107 0.214,0.056 0.44,0.048 0.64,0.147 0.11,-0.103 -0.046,-0.254 -0.125,-0.333 -0.2,-0.051 -0.415,-0.021 -0.619,-0.042 -0.092,-0.01 -0.181,-0.035 -0.273,-0.044 -0.111,-0.012 -0.223,-0.011 -0.335,-0.023 -0.179,-0.018 -0.346,-0.064 -0.521,-0.104 -0.133,-0.031 -0.252,-0.053 -0.381,-0.102 -0.03,-0.041 -0.068,-0.077 -0.089,-0.123 -0.027,-0.061 -0.072,-0.227 -0.032,-0.305 0.017,-0.033 0.058,-0.046 0.086,-0.069 0.086,-0.068 0.173,-0.122 0.269,-0.173 0.321,-0.168 0.655,-0.206 1.013,-0.216 0.277,-0.007 0.554,0.007 0.831,0.012 0.535,0.009 1.064,0.026 1.593,0.102 0.458,0.066 0.925,0.046 1.384,0.114 0.362,0.054 0.722,0.043 1.065,0.189 0.094,0.04 0.171,0.099 0.253,0.158 0.128,0.199 0.097,0.435 0.1,0.662 0.005,0.377 0.017,0.755 0.033,1.131 0.01,0.222 0.029,0.44 0.051,0.661 0.018,0.19 0.015,0.385 0.02,0.577 0.009,0.32 0.023,0.641 0.009,0.962 -0.043,1.026 -0.251,2.013 -0.533,2.997 -0.181,0.63 -0.307,1.278 -0.458,1.916 -0.122,0.515 -0.272,1.039 -0.333,1.567 -0.106,0.906 -0.043,1.83 -0.049,2.741 -0.003,0.52 -0.054,1.047 -0.015,1.567 0.033,0.445 0.231,0.846 0.348,1.271 0.164,0.599 0.27,1.241 0.22,1.863 -0.029,0.353 -0.136,0.698 -0.233,1.038 -0.235,0.825 -0.604,1.601 -0.853,2.421 0.241,0.122 0.514,0.134 0.774,0.196 0.141,0.033 0.287,0.082 0.397,0.183 0.216,0.2 0.294,0.495 0.364,0.77 0.056,0.223 0.12,0.444 0.162,0.671 0.056,0.303 0.128,0.602 0.173,0.907 0.041,0.282 0.059,0.566 0.09,0.85 0.02,0.193 0.061,0.383 0.088,0.576 0.05,0.356 0.101,0.715 0.175,1.066 0.032,0.15 0.072,0.334 0.166,0.457 0.117,0.153 0.298,0.25 0.423,0.4 0.161,0.195 0.281,0.449 0.365,0.687 0.08,0.229 0.118,0.467 0.183,0.699 0.071,0.254 0.162,0.497 0.196,0.76 0.087,0.695 0.028,1.416 -0.07,2.107 C 2.689,0.321 2.612,0.882 2.32,1.315 2.091,1.655 1.761,1.845 1.435,2.077 1.213,2.236 0.99,2.422 0.796,2.613 0.744,2.832 0.755,3.063 0.682,3.277 0.462,3.918 -0.061,4.449 -0.652,4.763 -0.835,4.859 -1.035,4.941 -1.24,4.977 -1.773,5.069 -2.328,4.918 -2.826,4.737 -3.106,4.635 -3.39,4.512 -3.637,4.342 -3.942,4.132 -4.271,3.827 -4.398,3.469 -4.506,3.162 -4.368,2.853 -4.218,2.589 -4.115,2.408 -3.98,2.23 -3.967,2.016 -4.003,1.874 -4.101,1.781 -4.197,1.674 -4.343,1.512 -4.551,1.335 -4.606,1.12 c 0.089,-0.074 0.167,-0.154 0.251,-0.234 0.174,-0.164 0.354,-0.315 0.449,-0.54 0.103,-0.242 0.082,-0.511 0.098,-0.766 0.006,-0.105 0.035,-0.198 0.054,-0.301 0.291,-0.07 0.603,-0.036 0.899,-0.016 0.203,0.013 0.407,0.014 0.61,0.026 0.033,-0.232 -0.028,-0.454 -0.034,-0.686 -0.007,-0.272 0.063,-0.543 0.026,-0.814 -0.105,-0.143 -0.299,-0.192 -0.443,-0.288 -0.304,-0.203 -0.59,-0.457 -0.796,-0.759 -0.55,-0.806 -0.905,-1.721 -1.251,-2.626 -0.288,-0.75 -0.613,-1.488 -0.885,-2.244 -0.166,-0.461 -0.282,-0.933 -0.416,-1.403 -0.159,-0.561 -0.327,-1.12 -0.518,-1.671 -0.077,-0.222 -0.161,-0.438 -0.247,-0.657 -0.068,-0.174 -0.127,-0.337 -0.247,-0.485 -0.207,-0.253 -0.488,-0.408 -0.771,-0.561 -0.412,-0.222 -0.799,-0.491 -1.265,-0.59 -0.317,-0.067 -0.636,-0.121 -0.955,-0.176 -0.194,-0.033 -0.443,-0.055 -0.613,-0.163 -0.043,-0.027 -0.074,-0.069 -0.111,-0.104 0,-0.073 -0.004,-0.146 0,-0.218 z"
         style="fill:#c64288;fill-opacity:1;fill-rule:evenodd;stroke:none"
         transform="matrix(-0.77321997,0,0,-0.71458392,3.0217941,9.7413475)"
         clip-path="url(#clipPath1101-3)" />
    </g>
  </g>
</svg>
