<?xml version="1.0" encoding="UTF-8" standalone="no"?>
<!-- Created with Inkscape (http://www.inkscape.org/) -->

<svg
   width="3cm"
   height="4cm"
   viewBox="0 0 30 40"
   version="1.1"
   id="svg1"
   inkscape:version="1.4 (86a8ad7, 2024-10-11)"
   sodipodi:docname="sit.svg"
   xmlns:inkscape="http://www.inkscape.org/namespaces/inkscape"
   xmlns:sodipodi="http://sodipodi.sourceforge.net/DTD/sodipodi-0.dtd"
   xmlns="http://www.w3.org/2000/svg"
   xmlns:svg="http://www.w3.org/2000/svg">
  <sodipodi:namedview
     id="namedview1"
     pagecolor="#ffffff"
     bordercolor="#000000"
     borderopacity="0.25"
     inkscape:showpageshadow="2"
     inkscape:pageopacity="0.0"
     inkscape:pagecheckerboard="0"
     inkscape:deskcolor="#d1d1d1"
     inkscape:document-units="mm"
     inkscape:zoom="1.3950758"
     inkscape:cx="217.55091"
     inkscape:cy="279.55471"
     inkscape:window-width="1245"
     inkscape:window-height="1030"
     inkscape:window-x="703"
     inkscape:window-y="0"
     inkscape:window-maximized="0"
     inkscape:current-layer="layer1" />
  <defs
     id="defs1">
    <clipPath
       clipPathUnits="userSpaceOnUse"
       id="clipPath1099-5">
      <path
         d="M 0,167.244 H 252.283 V 0 H 0 Z"
         transform="translate(-211.51631,-61.309299)"
         id="path1099-4" />
    </clipPath>
    <clipPath
       clipPathUnits="userSpaceOnUse"
       id="clipPath1101-3">
      <path
         d="M 0,167.244 H 252.283 V 0 H 0 Z"
         transform="translate(-235.86471,-91.583102)"
         id="path1101-1" />
    </clipPath>
    <clipPath
       clipPathUnits="userSpaceOnUse"
       id="clipPath1097-2">
      <path
         d="M 0,167.244 H 252.283 V 0 H 0 Z"
         transform="translate(-32.987001,-63.124299)"
         id="path1097-7" />
    </clipPath>
  </defs>
  <g
     inkscape:label="Capa 1"
     inkscape:groupmode="layer"
     id="layer1"
     style="display:inline;opacity:1;fill:#ffffff">
    <g
       id="g2"
       style="fill:#c7428a;fill-opacity:1"
       transform="matrix(0.75947038,0,0,0.83080837,-0.36237787,2.1703335)">
      <g
         id="g1"
         style="fill:#c7428a;fill-opacity:1">
        <path
           id="path1096-4"
           d="M 0,0 C 0.084,0.04 0.153,-0.106 0.23,-0.159 0.369,-0.255 0.49,-0.378 0.633,-0.467 0.724,-0.525 0.824,-0.57 0.92,-0.618 0.847,-0.907 0.547,-1.14 0.258,-1.176 0.225,-1.181 0.06,-1.192 0.037,-1.186 c -0.029,0.007 -0.048,0.035 -0.072,0.053 -0.038,0.282 -0.031,0.559 -0.009,0.842 C -0.029,-0.194 -0.088,-0.042 0,0 Z m -11.673,15.016 c 0.073,-0.004 0.126,-0.074 0.19,-0.111 0.229,-0.133 0.48,-0.252 0.632,-0.481 0.038,-0.131 0.044,-0.251 0.036,-0.387 -0.022,-0.418 -0.154,-0.842 -0.466,-1.136 -0.091,-0.085 -0.205,-0.2 -0.33,-0.223 -0.01,0.094 -0.034,0.183 -0.045,0.277 -0.026,0.23 -0.032,0.462 -0.048,0.692 -0.009,0.129 -0.037,0.255 -0.046,0.384 -0.02,0.297 -0.002,0.592 10e-4,0.889 0.025,0.032 0.035,0.098 0.076,0.096 m -6.658,4.766 c 0.003,-0.032 0.027,-0.058 0.04,-0.087 0.118,-0.081 0.229,-0.173 0.349,-0.252 -0.011,-0.265 -0.129,-0.515 -0.186,-0.772 -0.079,-0.36 -0.084,-0.717 -0.11,-1.082 -0.005,-0.082 -0.02,-0.163 -0.02,-0.246 0,-0.085 0.017,-0.168 0.022,-0.253 0.025,-0.406 0.058,-0.807 0.122,-1.21 0.102,-0.637 0.26,-1.265 0.357,-1.903 0.043,-0.285 0.053,-0.574 0.085,-0.859 0.072,-0.66 0.135,-1.32 0.194,-1.981 0.036,-0.387 0.065,-0.78 0.116,-1.165 0.061,-0.465 0.134,-0.932 0.161,-1.4 0.027,-0.474 -0.088,-0.921 -0.179,-1.382 -0.101,-0.507 -0.167,-1.012 -0.196,-1.529 -0.022,-0.402 -0.037,-0.806 -0.029,-1.209 0.022,-1.115 0.167,-2.223 0.186,-3.339 0.008,-0.5 -0.011,-1.004 0.035,-1.503 0.036,-0.402 0.146,-0.795 0.167,-1.198 0.016,-0.301 -0.057,-0.593 -0.058,-0.892 -0.001,-0.17 0.036,-0.352 0.061,-0.52 0.075,-0.514 0.181,-1.13 0.721,-1.354 0.161,-0.067 0.353,-0.11 0.526,-0.071 0.146,0.034 0.263,0.133 0.392,0.203 0.143,0.078 0.281,0.127 0.438,0.17 0.498,-0.004 0.783,-0.448 1.217,-0.613 0.241,-0.091 0.512,-0.091 0.766,-0.097 0.27,-0.006 0.543,-0.011 0.812,0.017 0.125,0.012 0.246,0.043 0.37,0.057 0.259,0.03 0.511,0.042 0.763,0.117 0.295,0.089 0.608,0.203 0.775,0.477 0.043,0.122 0.08,0.238 0.048,0.37 -0.016,0.068 -0.077,0.114 -0.125,0.159 -0.08,0.074 -0.166,0.144 -0.252,0.212 -0.441,0.345 -1,0.528 -1.511,0.742 -0.123,0.052 -0.242,0.116 -0.366,0.166 -0.092,0.037 -0.177,0.037 -0.246,0.129 -0.03,0.038 -0.025,0.093 -0.037,0.14 0.145,0.005 0.286,0.009 0.431,0.028 0.139,0.018 0.276,0.057 0.416,0.07 0.265,0.023 0.532,0.004 0.797,0.017 0.248,0.013 0.498,0.054 0.74,0.108 0.293,0.065 0.685,0.23 0.829,0.508 0.037,0.18 -0.049,0.29 -0.186,0.404 -0.165,0.135 -0.353,0.206 -0.556,0.264 -0.357,0.101 -0.717,0.117 -1.081,0.171 -0.309,0.045 -0.625,0.111 -0.919,0.218 -0.418,0.153 -0.728,0.458 -1.086,0.707 0.057,0.406 0.309,0.793 0.496,1.152 0.224,0.43 0.392,0.922 0.508,1.392 0.225,0.914 0.34,1.862 0.459,2.793 0.042,0.321 0.041,0.645 0.089,0.966 0.109,0.738 0.234,1.478 0.308,2.22 0.049,0.494 0.025,0.992 0.048,1.487 0.006,0.125 0.036,0.243 0.046,0.366 0.038,0.5 0.05,1.012 -0.002,1.51 0.087,0.129 0.224,0.204 0.348,0.297 0.142,0.106 0.294,0.226 0.408,0.364 0.09,0.108 0.171,0.236 0.238,0.36 0.041,0.077 0.054,0.145 0.118,0.211 0.028,0.028 0.066,0.044 0.099,0.066 0.193,-0.234 0.295,-0.495 0.426,-0.766 0.153,-0.314 0.328,-0.623 0.507,-0.924 0.21,-0.352 0.426,-0.702 0.65,-1.045 0.242,-0.369 0.474,-0.747 0.746,-1.095 0.083,-0.106 0.178,-0.204 0.265,-0.307 0.261,-0.309 0.505,-0.619 0.799,-0.9 C -6.47,7.979 -5.845,7.537 -5.177,7.296 -4.972,7.221 -4.746,7.174 -4.532,7.128 -4.372,7.094 -4.233,7.079 -4.1,6.977 -4.074,6.751 -4.072,6.508 -4.109,6.282 -4.161,5.973 -4.272,5.696 -4.256,5.376 c 0.015,-0.311 0.17,-0.598 0.288,-0.881 0.169,-0.409 0.3,-0.836 0.479,-1.24 0.195,-0.441 0.51,-0.817 0.812,-1.189 0.149,-0.184 0.309,-0.36 0.436,-0.561 0.164,-0.259 0.192,-0.559 0.235,-0.856 0.032,-0.226 0.046,-0.453 0.075,-0.68 0.029,-0.229 0.08,-0.456 0.093,-0.687 0.009,-0.148 -0.002,-0.293 -0.013,-0.441 -0.012,-0.169 0.015,-0.301 -0.055,-0.464 -0.106,-0.095 -0.245,-0.136 -0.372,-0.195 -0.187,-0.087 -0.402,-0.183 -0.547,-0.334 -0.003,-0.003 -0.127,-0.158 -0.133,-0.176 -0.013,-0.038 -0.008,-0.081 -0.012,-0.121 0.146,-0.199 0.33,-0.277 0.55,-0.369 0.092,-0.038 0.199,-0.087 0.301,-0.09 0.092,-0.003 0.204,0.027 0.292,0.052 0.111,0.032 0.194,0.087 0.307,0.044 -0.011,-0.039 -0.017,-0.079 -0.034,-0.116 -0.037,-0.077 -0.125,-0.129 -0.188,-0.181 -0.105,-0.088 -0.216,-0.17 -0.32,-0.259 -0.103,-0.089 -0.204,-0.198 -0.294,-0.3 -0.056,-0.063 -0.112,-0.128 -0.156,-0.2 -0.02,-0.033 -0.049,-0.067 -0.049,-0.106 10e-4,-0.034 0.034,-0.058 0.052,-0.088 0.106,-0.06 0.212,-0.119 0.325,-0.167 0.133,-0.057 0.267,-0.077 0.406,-0.106 0.473,-0.1 1.041,-0.045 1.272,0.444 0.121,0.255 0.131,0.571 0.144,0.847 0.007,0.137 -0.005,0.306 0.042,0.437 0.016,0.044 0.044,0.083 0.066,0.125 0.124,0.116 0.25,0.215 0.406,0.287 0.227,0.105 0.484,0.133 0.726,0.185 0.433,0.094 0.887,0.161 1.326,0.062 0.109,-0.123 0.181,-0.236 0.24,-0.39 C 2.487,-2.448 2.5,-2.397 2.448,-2.478 2.154,-2.64 1.813,-2.747 1.596,-3.021 1.561,-3.065 1.495,-3.154 1.478,-3.211 1.452,-3.303 1.474,-3.365 1.49,-3.458 1.562,-3.55 1.581,-3.593 1.68,-3.655 c 0.237,-0.151 0.586,-0.107 0.846,-0.063 0.258,0.044 0.507,0.125 0.762,0.182 0.346,0.077 0.696,0.141 1.045,0.205 0.268,0.05 0.539,0.09 0.807,0.137 0.198,0.034 0.385,0.065 0.57,0.141 0.076,0.245 0.056,0.495 0.101,0.743 0.037,0.197 0.105,0.372 0.23,0.528 0.275,0.161 0.701,0.082 0.864,0.417 0.152,0.311 -0.066,0.7 -0.143,1 C 6.683,-0.056 6.675,0.262 6.639,0.577 6.607,0.848 6.552,1.114 6.454,1.37 5.75,3.199 4.251,4.571 2.833,5.861 2.482,6.18 2.151,6.521 1.8,6.842 1.513,7.105 1.206,7.349 0.932,7.627 0.769,7.792 0.625,7.97 0.482,8.152 0.316,8.365 0.106,8.574 0.052,8.845 0.12,8.992 0.213,9.102 0.297,9.236 0.344,9.467 0.29,9.68 0.231,9.904 c -0.049,0.188 -0.09,0.379 -0.123,0.571 -0.072,0.417 -0.111,0.851 -0.239,1.256 -0.224,0.706 -0.665,1.26 -1.269,1.682 -0.157,0.109 -0.324,0.212 -0.493,0.301 -0.105,0.055 -0.216,0.11 -0.336,0.118 -0.167,0.012 -0.316,-0.081 -0.476,-0.105 -0.201,0.046 -0.348,0.177 -0.515,0.29 -0.289,0.196 -0.569,0.408 -0.873,0.583 -0.089,0.051 -0.179,0.101 -0.269,0.15 -0.03,0.017 -0.056,0.041 -0.089,0.049 -0.04,0.01 -0.083,0.003 -0.124,0.004 -0.35,-0.364 -0.577,-0.781 -0.669,-1.279 -0.03,-0.162 -0.067,-0.357 -0.02,-0.52 0.029,-0.098 0.1,-0.188 0.163,-0.265 0.107,-0.13 0.226,-0.249 0.325,-0.385 0.259,-0.353 0.494,-0.78 0.592,-1.209 0.08,-0.352 0.064,-0.74 0.021,-1.096 -0.039,-0.325 -0.107,-0.646 -0.098,-0.974 0.05,-0.092 0.058,-0.121 0.132,-0.201 0.109,-0.118 0.261,-0.197 0.353,-0.331 0.07,-0.101 0.052,-0.267 0.027,-0.377 -0.055,-0.25 -0.137,-0.514 -0.277,-0.73 -0.407,0.043 -0.815,0.139 -1.197,0.282 -0.094,0.035 -0.193,0.057 -0.284,0.101 -0.322,0.156 -0.634,0.382 -0.905,0.614 -0.719,0.613 -1.297,1.347 -1.826,2.125 -0.205,0.301 -0.423,0.594 -0.61,0.909 -0.321,0.541 -0.602,1.106 -0.879,1.67 -0.117,0.239 -0.28,0.473 -0.354,0.73 -0.062,0.218 -0.053,0.454 -0.078,0.677 -0.029,0.259 -0.083,0.514 -0.117,0.772 -0.035,0.266 -0.036,0.536 -0.11,0.796 -0.1,0.354 -0.321,0.659 -0.449,1.001 -0.14,0.373 -0.221,0.772 -0.34,1.153 -0.107,0.344 -0.269,0.679 -0.326,1.037 -0.042,0.263 -0.02,0.535 -0.03,0.801 -0.022,0.567 -0.023,1.138 0.002,1.705 0.016,0.355 0.061,0.708 0.081,1.063 0.154,0.058 0.35,0.042 0.513,0.04 0.248,-0.004 0.514,-0.006 0.754,0.07 0.403,0.127 0.684,0.465 1.028,0.69 0.047,0.108 0.003,0.181 -0.043,0.283 -0.045,0.103 -0.081,0.182 -0.094,0.294 0.201,0.043 0.407,0.068 0.607,0.117 0.256,0.062 0.506,0.136 0.768,0.176 0.14,0.021 0.28,0.038 0.418,0.073 0.087,0.022 0.144,0.038 0.202,0.107 -0.051,0.084 -0.133,0.14 -0.206,0.205 -0.131,0.115 -0.276,0.263 -0.438,0.333 -0.1,0.043 -0.232,0.029 -0.338,0.022 -0.162,-0.009 -0.323,-0.027 -0.485,-0.038 -0.278,-0.019 -0.553,-0.053 -0.829,-0.093 -0.318,-0.046 -0.638,-0.094 -0.94,-0.21 -0.298,-0.115 -0.562,-0.313 -0.85,-0.451 -0.065,0.126 -0.05,0.242 -0.058,0.381 -0.022,0.401 0.029,0.803 -0.007,1.204 -0.05,0.557 -0.234,1.114 -0.397,1.647 -0.142,0.461 -0.268,0.926 -0.401,1.39 -0.064,0.224 -0.159,0.437 -0.222,0.661 -0.033,0.116 -0.071,0.261 -0.054,0.382 0.019,0.14 0.043,0.156 0.113,0.26 0.044,0.01 0.087,0.039 0.132,0.032 0.048,-0.008 0.083,-0.05 0.125,-0.074 0.138,-0.082 0.268,-0.174 0.396,-0.27 0.067,-0.049 0.123,-0.12 0.204,-0.145 0.248,0.298 0.543,0.513 0.894,0.676 0.159,0.073 0.318,0.152 0.492,0.183 0.153,0.028 0.324,0.024 0.48,0.029 0.03,0.141 0.012,0.293 0.048,0.432 0.013,0.049 0.041,0.094 0.061,0.141 0.116,0.155 0.256,0.285 0.382,0.431 0.329,0.347 0.637,0.699 0.812,1.152 0.055,0.145 0.116,0.316 0.127,0.472 0.021,0.327 -0.189,0.654 -0.346,0.925 -0.349,0.601 -0.811,1.221 -1.555,1.313 -0.159,0.02 -0.318,0.009 -0.476,-0.015 -0.354,-0.053 -0.727,-0.171 -1.02,-0.383 -0.365,-0.262 -0.622,-0.678 -0.87,-1.044 -0.348,-0.517 -0.752,-1.057 -1.262,-1.426 -0.348,-0.253 -0.78,-0.331 -1.179,-0.469 -0.574,-0.2 -1.13,-0.442 -1.645,-0.764 -0.273,-0.171 -0.54,-0.367 -0.729,-0.632 -0.16,-0.224 -0.256,-0.492 -0.332,-0.753 -0.109,-0.372 -0.175,-0.753 -0.266,-1.13 -0.075,-0.307 -0.155,-0.618 -0.187,-0.934 -0.085,-0.843 0.002,-1.702 0.037,-2.546 0.029,-0.704 0.019,-1.414 0.077,-2.117 0.007,-0.087 0.03,-0.168 0.037,-0.254 0.032,-0.367 0.052,-0.735 0.074,-1.102 0.007,-0.125 0.032,-0.244 0.028,-0.37 -0.021,-0.604 -0.178,-1.178 -0.396,-1.738 -0.015,-0.046 -0.071,-0.198 -0.067,-0.253 z"
           style="fill:#c7428a;fill-opacity:1;fill-rule:evenodd;stroke:none"
           transform="matrix(0.99774051,0,0,-0.83055689,21.514141,31.28765)"
           clip-path="url(#clipPath1097-2)" />
      </g>
    </g>
  </g>
</svg>
